# Blender v2.66 (sub 1) OBJ File: ''
# www.blender.org
mtllib skybox.mtl
o Cube
v 1.000000 -1.000000 -1.000000
v 1.000000 -1.000000 1.000000
v -1.000000 -1.000000 1.000000
v -1.000000 -1.000000 -1.000000
v 1.000000 1.000000 -0.999999
v 0.999999 1.000000 1.000001
v -1.000000 1.000000 1.000000
v -1.000000 1.000000 -1.000000
vt 0.749950 0.666632
vt 0.749950 0.999898
vt 0.500000 0.999899
vt 0.749950 0.333366
vt 0.500001 0.333366
vt 0.500001 0.000101
vt 0.999900 0.333365
vt 0.000100 0.666631
vt 0.000101 0.333365
vt 0.250050 0.666632
vt 0.250050 0.333365
vt 0.500000 0.666632
vt 0.749950 0.000100
vt 0.999900 0.666632
vn 0.000000 -1.000000 0.000000
vn -0.000000 1.000000 0.000000
vn 1.000000 -0.000000 0.000001
vn -0.000000 -0.000000 1.000000
vn -1.000000 -0.000000 -0.000000
vn 0.000000 0.000000 -1.000000
vn 1.000000 0.000000 -0.000000
usemtl Material
s off
f 1/1/1 2/2/1 3/3/1
f 5/4/2 8/5/2 7/6/2
f 1/1/3 5/4/3 6/7/3
f 2/8/4 6/9/4 3/10/4
f 3/10/5 7/11/5 4/12/5
f 5/4/6 1/1/6 4/12/6
f 4/12/1 1/1/1 3/3/1
f 6/13/2 5/4/2 7/6/2
f 2/14/7 1/1/7 6/7/7
f 6/9/4 7/11/4 3/10/4
f 7/11/5 8/5/5 4/12/5
f 8/5/6 5/4/6 4/12/6
